<svg xmlns="http://www.w3.org/2000/svg" viewBox="0 0 1024 1024" width="1024" height="1024" fill="currentColor">
  <path d="M1024 512C1024 520.78 1019.47 529.25 1011.5 535.44 1003.47 541.7 992.63 545.2 981.32 545.2H42.63C31.31 545.2 20.48 541.7 12.45 535.44 4.47 529.25 0 520.78 0 512 0 503.22 4.47 494.75 12.45 488.56 20.48 482.3 31.31 478.8 42.63 478.8H981.32C992.63 478.8 1003.47 482.3 1011.5 488.56 1019.47 494.75 1024 503.22 1024 512ZM42.63 279.71H981.32C992.63 279.71 1003.47 276.21 1011.5 269.96 1019.47 263.76 1024 255.3 1024 246.51 1024 237.73 1019.47 229.27 1011.5 223.07 1003.47 216.82 992.63 213.32 981.32 213.32H42.63C31.31 213.32 20.48 216.82 12.45 223.07 4.47 229.27 0 237.73 0 246.51 0 255.3 4.47 263.76 12.45 269.96 20.48 276.21 31.31 279.71 42.63 279.71ZM981.32 744.29H42.63C31.31 744.29 20.48 747.79 12.45 754.04 4.47 760.24 0 768.7 0 777.49 0 786.27 4.47 794.73 12.45 800.93 20.48 807.18 31.31 810.68 42.63 810.68H981.32C992.63 810.68 1003.47 807.18 1011.5 800.93 1019.47 794.73 1024 786.27 1024 777.49 1024 768.7 1019.47 760.24 1011.5 754.04 1003.47 747.79 992.63 744.29 981.32 744.29Z"/>
</svg>
