<svg xmlns="http://www.w3.org/2000/svg" viewBox="0 0 1024 1024" width="1024" height="1024" fill="currentColor">
  <path d="M928.01 416H832V224H928.01C936.47 224 944.61 220.63 950.65 214.63 956.63 208.63 959.97 200.49 959.97 192 959.97 183.51 956.63 175.37 950.65 169.37 944.61 163.37 936.47 160 928.01 160H823.32C817.71 150.29 809.65 142.22 799.94 136.6 790.23 130.98 779.22 128.02 768 128H704C692.78 128.02 681.77 130.98 672.06 136.6 662.35 142.22 654.29 150.29 648.68 160H576C465.7 160.12 359.96 203.98 281.97 281.97 203.98 359.96 160.12 465.71 160 576V648.64C150.28 654.25 142.21 662.32 136.59 672.04 130.97 681.75 128.01 692.78 128 704V768C128.01 779.22 130.97 790.25 136.59 799.96 142.21 809.68 150.28 817.75 160 823.36V928C160 936.49 163.37 944.62 169.37 950.63 175.37 956.63 183.51 960 192 960 200.49 960 208.63 956.63 214.63 950.63 220.63 944.62 224 936.49 224 928V832H416V928C416 936.49 419.37 944.62 425.37 950.63 431.37 956.63 439.51 960 448 960 456.49 960 464.63 956.63 470.63 950.63 476.63 944.62 480 936.49 480 928V823.36C489.72 817.75 497.79 809.68 503.41 799.96 509.03 790.25 511.99 779.22 512 768V704C511.99 692.78 509.03 681.75 503.41 672.04 497.79 662.32 489.72 654.25 480 648.64V576C480 550.54 490.11 526.12 508.12 508.12 526.12 490.11 550.54 480 576 480H648.68C654.29 489.71 662.35 497.78 672.06 503.4 681.77 509.02 692.78 511.98 704 512H768C779.22 511.98 790.23 509.02 799.94 503.4 809.65 497.78 817.71 489.71 823.32 480H928.01C936.47 480 944.61 476.63 950.65 470.63 956.63 464.63 959.97 456.49 959.97 448 959.97 439.51 956.63 431.37 950.65 425.37 944.61 419.37 936.47 416 928.01 416ZM448 704V768H192V704H448ZM416 576V640H224V576C224.11 482.68 261.23 393.21 327.22 327.22 393.21 261.23 482.68 224.11 576 224H640V416H576C533.56 416 492.87 432.86 462.86 462.86 432.86 492.87 416 533.57 416 576ZM704 448V192H768V447.2C768 447.48 768 447.72 768 448H704Z"/>
</svg>
